<!--?xml version="1.0" encoding="utf-8"?-->
<!-- Generator: Adobe Illustrator 15.1.0, SVG Export Plug-In . SVG Version: 6.00 Build 0)  -->

<svg version="1.1" id="_x32_" xmlns="http://www.w3.org/2000/svg" xmlns:xlink="http://www.w3.org/1999/xlink" x="0px" y="0px" width="512px" height="512px" viewBox="0 0 512 512" style="opacity: 1;" xml:space="preserve">
<style type="text/css">

	.st0{fill:#4B4B4B;}

</style>
<g>
	<path class="st0" d="M475.606,295.503L434.2,207.722c0.109-2.625,0.203-5.25,0.203-7.906c0-110.344-89.453-199.813-199.828-199.813
		c-110.359,0-199.828,89.469-199.828,199.813c0,62.063,28.297,117.516,72.672,154.172v70.625c0,6.891,4.109,13.125,10.453,15.813
		l165.5,70.203c5.297,2.25,11.375,1.703,16.172-1.469c4.813-3.188,7.703-8.563,7.703-14.313v-59.859
		c0-9.469,7.672-17.172,17.156-17.172h84.766c9.484,0,17.156-7.688,17.156-17.156V349.05c0-6.578,3.766-12.578,9.672-15.453
		l31.594-15.328C476.044,314.144,479.622,304.003,475.606,295.503z M234.575,335.722c-75.047,0-135.875-60.844-135.875-135.906
		c0-75.031,60.828-135.875,135.875-135.875s135.891,60.844,135.891,135.875C370.466,274.878,309.622,335.722,234.575,335.722z" style="fill: rgb(11, 87, 208);"></path>
	<path class="st0" d="M287.825,185.878h-39.297v-73.75c0-7.719-6.25-13.953-13.953-13.953s-13.953,6.234-13.953,13.953v87.688
		c0,7.719,6.25,13.953,13.953,13.953h53.25c7.703,0,13.953-6.234,13.953-13.953C301.778,192.112,295.528,185.878,287.825,185.878z" style="fill: rgb(11, 87, 208);"></path>
</g>
</svg>
