<svg width="16" height="16" viewBox="0 0 16 16" fill="none" xmlns="http://www.w3.org/2000/svg">
<path d="M13.9383 2.85409C12.6645 1.52927 10.8918 0.677774 8.92632 0.598399C8.43285 0.578461 8.0165 0.962399 7.99657 1.45568C7.97663 1.94915 8.36057 2.36549 8.85363 2.38568C10.3447 2.4464 11.6802 3.08821 12.6498 4.09446C13.6182 5.1018 14.211 6.46212 14.2114 7.96981C14.211 9.51609 13.5872 10.9076 12.5745 11.9221C11.56 12.935 10.1683 13.5586 8.62222 13.5591C7.07616 13.5586 5.68394 12.935 4.66991 11.9221C3.65725 10.9076 3.03341 9.51612 3.03297 7.96981C3.03297 7.86096 3.03629 7.75299 3.04241 7.64593L4.10775 8.17177C4.22344 8.22877 4.35782 8.22965 4.46244 8.17446C4.5675 8.11859 4.6296 8.01393 4.62694 7.89646L4.52188 3.21415C4.51832 3.08024 4.43188 2.95299 4.30019 2.88715C4.16763 2.82243 4.01375 2.83062 3.90604 2.91021L0.125254 5.67421C0.0299415 5.74362 -0.0153085 5.85643 0.00462897 5.97349C0.0236915 6.09096 0.10616 6.19671 0.222316 6.25393L1.33863 6.80484C1.2781 7.18502 1.24432 7.57365 1.24432 7.96981C1.24388 10.0042 2.07166 11.8545 3.40535 13.1868C4.73772 14.5203 6.5875 15.3481 8.62219 15.3476C10.6564 15.3481 12.5066 14.5203 13.839 13.1868C15.1727 11.8545 16.0004 10.0043 16 7.96984C16.0004 5.98659 15.2139 4.17781 13.9383 2.85409Z" fill="#5F6368"/>
</svg>
