<svg width="16" height="16" viewBox="0 0 16 16" fill="none" xmlns="http://www.w3.org/2000/svg">
<g clip-path="url(#clip0_9_3)">
<path d="M15.6079 6.56262L13.8626 6.482C13.7031 6.47481 13.5623 6.37591 13.5017 6.22878L13.1421 5.36331C13.0816 5.21556 13.111 5.04628 13.2188 4.9285L14.396 3.63687C14.5434 3.47475 14.538 3.22422 14.3828 3.06869L12.9317 1.61734C12.7759 1.46213 12.5254 1.45612 12.363 1.60447L11.072 2.78159C10.9539 2.88919 10.7843 2.91916 10.6369 2.85772L9.77143 2.49872C9.624 2.43791 9.52568 2.29703 9.5185 2.13731L9.43759 0.392594C9.42734 0.172937 9.24634 0 9.027 0H6.97362C6.75425 0 6.57265 0.172938 6.5625 0.392563L6.48215 2.13728C6.47497 2.297 6.37665 2.43784 6.22922 2.49869L5.36375 2.85772C5.21572 2.91916 5.04609 2.88919 4.92862 2.78159L3.63703 1.60447C3.47459 1.45616 3.22406 1.46184 3.06825 1.61734L1.61778 3.06869C1.46197 3.22422 1.45659 3.47475 1.60459 3.63687L2.78172 4.9285C2.88959 5.04628 2.91837 5.21556 2.85722 5.36331L2.49881 6.22878C2.43768 6.37591 2.29743 6.47481 2.13743 6.482L0.392685 6.56262C0.173341 6.5725 0.00012207 6.75381 0.00012207 6.97347V9.02656C0.00012207 9.24591 0.173341 9.4275 0.392685 9.43744L2.13743 9.51803C2.29743 9.52519 2.43768 9.62409 2.49881 9.77125L2.85722 10.6367C2.91837 10.7844 2.88959 10.9537 2.78172 11.0715L1.60459 12.3625C1.45597 12.5256 1.46197 12.7758 1.61718 12.9313L3.0694 14.3827C3.22462 14.5382 3.47456 14.5436 3.63759 14.3958L4.92859 13.2184C5.04606 13.1108 5.21631 13.0812 5.36372 13.1423L6.22915 13.501C6.37662 13.5622 6.4749 13.703 6.48209 13.8628L6.56243 15.6075C6.57259 15.8268 6.75418 16 6.97356 16H9.02693C9.24631 16 9.42731 15.8268 9.4375 15.6075L9.5184 13.8628C9.52559 13.703 9.6239 13.5622 9.77134 13.501L10.6368 13.1423C10.7842 13.0812 10.9538 13.1108 11.0719 13.2184L12.3629 14.3958C12.5253 14.5436 12.7759 14.5382 12.9317 14.3827L14.3827 12.9313C14.5379 12.7758 14.5433 12.5256 14.3959 12.3625L13.2187 11.0715C13.1109 10.9537 13.0809 10.7844 13.142 10.6367L13.5017 9.77125C13.5622 9.62409 13.703 9.52519 13.8625 9.51803L15.6078 9.43744C15.8272 9.4275 15.9997 9.24591 15.9997 9.02656V6.97347C15.9998 6.75381 15.8272 6.5725 15.6079 6.56262ZM8.00031 10.6131C6.55768 10.6131 5.38712 9.44313 5.38712 8.00019C5.38712 6.55694 6.55768 5.387 8.00031 5.387C9.44293 5.387 10.6129 6.55694 10.6129 8.00019C10.6129 9.44309 9.44293 10.6131 8.00031 10.6131Z" fill="#5F6368"/>
</g>
<defs>
<clipPath id="clip0_9_3">
<rect width="16" height="16" fill="white"/>
</clipPath>
</defs>
</svg>
